<svg width="48" height="43" viewBox="0 0 48 43" fill="none" xmlns="http://www.w3.org/2000/svg">
<path d="M21.3333 2.66675C19.8583 2.66675 18.6667 3.85841 18.6667 5.33341V13.8251C18.6667 14.2917 18.2917 14.6667 17.825 14.6667C17.525 14.6667 17.2417 14.5084 17.0917 14.2417L13.0917 7.25008C6.91667 10.2917 2.66667 16.6501 2.66667 24.0001V29.3334H45.3333V23.8001C45.2583 16.5334 41.025 10.2667 34.9083 7.25008L30.9083 14.2417C30.7583 14.5084 30.475 14.6667 30.175 14.6667C29.7083 14.6667 29.3333 14.2917 29.3333 13.8251V5.33341C29.3333 3.85841 28.1417 2.66675 26.6667 2.66675H21.3333ZM1.38333 32.0001C0.616667 32.0001 0 32.6167 0 33.3834C0 33.7751 0.166667 34.1501 0.483333 34.3751C2.29167 35.7001 9.31667 40.0001 24 40.0001C38.6833 40.0001 45.7083 35.7001 47.5167 34.3751C47.8333 34.1417 48 33.7751 48 33.3834C48 32.6167 47.3833 32.0001 46.6167 32.0001H1.38333Z" fill="#F89530"/>
</svg>
