<svg width="144" height="36" viewBox="0 0 144 36" fill="none" xmlns="http://www.w3.org/2000/svg">
<g clip-path="url(#clip0_1_839)">
<path d="M19.0181 0.00292969C19.8419 0.118011 20.6677 0.228761 21.4767 0.42675C24.0156 1.0467 26.3117 2.16101 28.3244 3.8402C30.1012 5.32264 31.5328 7.0866 32.5839 9.15373C33.4707 10.8973 34.0346 12.7423 34.2761 14.6832C34.7324 18.3559 34.0185 21.8108 32.2368 25.03C30.7466 27.7226 28.6202 29.8232 25.9541 31.3495C23.7031 32.6383 21.2679 33.3313 18.6753 33.4909C15.5337 33.6839 12.5878 32.9984 9.79946 31.5698C9.64074 31.4881 9.49685 31.4751 9.32825 31.5314C8.0795 31.9491 6.83137 32.3716 5.57768 32.7732C3.96085 33.2911 2.33908 33.7916 0.718547 34.2971C0.614176 34.3299 0.488189 34.3998 0.398022 34.307C0.312796 34.2197 0.409756 34.1127 0.440018 34.0211C1.36145 31.2654 2.28288 28.509 3.21419 25.757C3.29818 25.5089 3.27657 25.3133 3.14688 25.0887C1.87404 22.8843 1.17062 20.5047 0.972373 17.9673C0.738927 14.9746 1.32501 12.1434 2.62626 9.45442C4.40674 5.77492 7.16733 3.10393 10.8932 1.4334C12.5428 0.693416 14.272 0.264646 16.0624 0.0623264C16.163 0.0511895 16.2624 0.0227286 16.3625 0.00292969C17.2475 0.00292969 18.1331 0.00292969 19.0181 0.00292969ZM17.5668 2.72775C16.9739 2.70362 16.2359 2.77972 15.5053 2.8979C13.5926 3.20788 11.8171 3.89217 10.1787 4.92914C8.1641 6.2037 6.57013 7.88041 5.42081 9.97229C3.87809 12.7806 3.39144 15.7845 3.84474 18.9412C4.13809 20.9817 4.88351 22.8583 6.05074 24.5591C6.26134 24.866 6.31692 25.145 6.19032 25.5082C5.68513 26.9579 5.2096 28.4174 4.718 29.872C4.64883 30.0774 4.68836 30.148 4.90451 30.075C4.97245 30.0521 5.04409 30.0385 5.11264 30.0168C6.54172 29.5546 7.97327 29.1011 9.3968 28.6235C9.77229 28.4972 10.0724 28.5362 10.4102 28.7515C11.2705 29.3016 12.1926 29.7353 13.1647 30.0564C15.0248 30.6702 16.9313 30.9047 18.8835 30.7413C20.7634 30.5842 22.542 30.0682 24.2039 29.1747C25.7034 28.3692 27.0102 27.3223 28.149 26.0459C29.2551 24.806 30.1012 23.4151 30.7064 21.8832C31.4827 19.9206 31.7823 17.8764 31.6205 15.7622C31.4803 13.9302 31.0424 12.1786 30.2179 10.5421C28.9488 8.02396 27.1022 6.03231 24.6566 4.61422C22.5105 3.36936 20.202 2.72095 17.5662 2.72775H17.5668Z" fill="white"/>
<path d="M44.7475 16.6393C45.6775 16.6393 46.6082 16.648 47.5383 16.6331C47.9014 16.6269 48.0768 16.747 48.1627 17.125C48.8383 20.1004 49.5362 23.0715 50.2279 26.0432C50.2637 26.1966 50.3112 26.3476 50.4428 26.5122C50.6157 25.8904 50.7997 25.271 50.9597 24.6461C51.6001 22.1416 52.2387 19.6364 52.8625 17.1275C52.9526 16.7655 53.1268 16.6214 53.4961 16.6325C54.1211 16.6517 54.7473 16.6375 55.3729 16.6368C55.9341 16.6364 56.282 16.9169 56.4166 17.4783C56.8718 19.3679 57.3251 21.2574 57.7852 23.1457C58.0359 24.1759 58.2978 25.203 58.5578 26.2307C58.5961 26.3829 58.6535 26.5295 58.7499 26.8265C58.9796 25.8681 59.1766 25.052 59.3705 24.2353C59.935 21.86 60.5026 19.4854 61.0565 17.1077C61.1368 16.7637 61.3073 16.6282 61.6556 16.6344C62.4251 16.6486 63.1958 16.6542 63.9653 16.6313C64.4088 16.6183 64.4761 16.7952 64.3804 17.1869C63.7183 19.8857 62.9834 22.566 62.2503 25.2457C61.742 27.1043 61.2362 28.9641 60.7267 30.8228C60.6675 31.0393 60.5921 31.2521 60.5285 31.4675C60.4599 31.7007 60.3074 31.8022 60.0653 31.8022C59.1674 31.8009 58.2688 31.7997 57.3708 31.8133C57.0515 31.8183 57.0169 31.5924 56.9626 31.3753C56.639 30.0822 56.3178 28.7884 55.9979 27.4941C55.5743 25.779 55.1537 24.0627 54.7307 22.3476C54.7041 22.2412 54.6893 22.1255 54.5472 22.0413C54.3261 22.3445 54.2798 22.7089 54.1946 23.056C53.5208 25.7846 52.8439 28.5125 52.1868 31.2453C52.0862 31.6642 51.8978 31.8294 51.4624 31.8115C50.7256 31.7818 49.9858 31.7774 49.2496 31.8146C48.7908 31.8374 48.5857 31.6531 48.4739 31.2293C48.0268 29.5371 47.5537 27.8517 47.1017 26.1607C46.5706 24.1753 46.0499 22.1867 45.5262 20.1994C45.2644 19.2058 45.0062 18.2115 44.7462 17.2178C44.7462 17.0248 44.7462 16.8324 44.7462 16.6393H44.7475Z" fill="white"/>
<path d="M132.149 35.6381C132.148 30.9452 132.146 26.2522 132.146 21.5593C132.146 20.8162 132.167 20.7958 132.892 20.7914C133.422 20.7884 133.952 20.81 134.48 20.7809C134.951 20.7556 135.179 20.9208 135.137 21.412C135.124 21.5673 135.152 21.7263 135.171 22.0592C135.423 21.7733 135.565 21.5655 135.75 21.4089C137.517 19.9203 140.484 20.2748 141.973 22.1186C142.691 23.0083 143.04 24.0465 143.315 25.1262V27.8262C143.195 28.2074 143.087 28.5934 142.952 28.9696C142.153 31.1803 139.96 32.4746 137.711 32.0613C136.776 31.8893 135.975 31.4624 135.367 30.6927C135.321 30.7095 135.276 30.7262 135.23 30.7435V35.6381H132.149H132.149ZM140.262 26.3871C140.234 26.0518 140.226 25.7133 140.171 25.3823C140.124 25.0996 140.047 24.8162 139.942 24.5489C139.496 23.408 138.664 22.8462 137.55 22.9118C136.447 22.9767 135.68 23.6474 135.358 24.8174C135.05 25.9361 135.099 27.0516 135.471 28.135C135.777 29.0272 136.384 29.6496 137.377 29.7443C138.423 29.8445 139.271 29.5153 139.783 28.5285C140.132 27.8553 140.265 27.1395 140.262 26.3865V26.3871Z" fill="white"/>
<path d="M120.308 35.6388C120.195 35.413 120.216 35.1686 120.216 34.9292C120.215 30.4621 120.215 25.9943 120.216 21.5272C120.216 20.8175 120.238 20.7971 120.945 20.7928C121.49 20.7891 122.036 20.8107 122.58 20.7841C123.039 20.7612 123.234 20.9369 123.2 21.3985C123.188 21.5631 123.138 21.7499 123.321 21.9584C123.543 21.7221 123.731 21.4573 123.977 21.2717C125.695 19.9779 128.523 20.3683 129.927 21.9993C131.752 24.1184 132.004 27.7477 130.329 30.2319C128.853 32.4191 125.57 32.7884 123.666 30.9527C123.587 30.8766 123.527 30.7727 123.293 30.7436V35.6395H120.308L120.308 35.6388ZM128.298 26.4138C128.316 25.7326 128.234 25.065 127.971 24.4339C127.57 23.4724 126.836 22.9212 125.803 22.8525C124.919 22.7937 124.288 23.2707 123.816 23.9841C123 25.216 123.041 27.4607 123.821 28.7266C124.67 30.1032 127.131 30.2146 127.89 28.4698C128.18 27.8041 128.312 27.129 128.298 26.4138Z" fill="white"/>
<path d="M118.048 31.8064C117.663 31.8064 117.276 31.7761 116.895 31.8138C116.438 31.8596 116.227 31.6542 116.103 31.2415C115.876 30.4891 115.604 29.7504 115.381 28.9974C115.279 28.6516 115.111 28.5006 114.738 28.5043C113.2 28.5185 111.661 28.5148 110.122 28.5024C109.781 28.5 109.599 28.62 109.49 28.951C109.219 29.7739 108.901 30.5813 108.629 31.4036C108.532 31.6987 108.375 31.8113 108.073 31.8076C107.224 31.7977 106.374 31.7959 105.525 31.8144C105.183 31.8219 105.096 31.734 105.222 31.3987C105.919 29.5524 106.601 27.6994 107.292 25.8506C108.095 23.7018 108.903 21.5543 109.711 19.4067C110.005 18.6259 110.307 17.8482 110.598 17.0667C110.715 16.7537 110.921 16.6268 111.258 16.6336C112.076 16.6497 112.894 16.654 113.711 16.6312C114.099 16.62 114.273 16.7803 114.404 17.1354C115.638 20.4771 116.886 23.8138 118.138 27.1487C118.645 28.5012 119.177 29.8438 119.68 31.1976C119.887 31.755 119.839 31.8014 119.25 31.8058C118.849 31.8089 118.448 31.8058 118.048 31.8058L118.048 31.8064ZM112.395 25.8871C112.891 25.8871 113.388 25.8884 113.885 25.8871C114.13 25.8859 114.24 25.7968 114.148 25.5277C113.636 24.0242 113.132 22.5176 112.625 21.0129C112.595 20.9257 112.575 20.81 112.455 20.81C112.36 20.81 112.339 20.9083 112.312 20.9826C111.776 22.4941 111.242 24.0069 110.704 25.5178C110.601 25.8104 110.734 25.8933 111.002 25.8896C111.466 25.8834 111.931 25.8878 112.395 25.8878L112.395 25.8871Z" fill="white"/>
<path d="M68.2258 22.0811C68.4617 22.0006 68.5716 21.8317 68.6921 21.6907C70.0421 20.1099 72.6396 20.2763 73.9187 21.1146C74.9426 21.7853 75.2508 22.8656 75.3508 23.9886C75.5694 26.4405 75.412 28.9012 75.4496 31.3575C75.4546 31.6928 75.2878 31.8073 74.9722 31.8036C74.283 31.7955 73.592 31.7832 72.904 31.8129C72.4568 31.832 72.2907 31.6266 72.2876 31.2201C72.2827 30.4653 72.2777 29.7098 72.2771 28.955C72.2765 27.7658 72.2796 26.5773 72.2802 25.3881C72.2802 25.2272 72.2802 25.0664 72.2679 24.9061C72.182 23.7163 71.6423 23.0741 70.6819 23.0147C69.3541 22.9324 68.5803 23.488 68.316 24.6877C68.2036 25.1963 68.1832 25.7173 68.2091 26.2221C68.2845 27.699 68.0677 29.1716 68.2091 30.6515C68.3197 31.8023 68.2703 31.8073 67.1475 31.8073C66.6343 31.8073 66.1198 31.7875 65.6079 31.8129C65.1799 31.8345 65.0502 31.6501 65.0533 31.2443C65.0662 29.557 65.0588 27.8704 65.0588 26.1832C65.0588 23.243 65.0582 20.3023 65.0588 17.3621C65.0588 16.6778 65.0916 16.645 65.7542 16.6413C66.3798 16.6376 67.0061 16.6562 67.6304 16.6327C68.0627 16.6166 68.2363 16.7787 68.2301 17.2192C68.2066 18.7771 68.2054 20.3357 68.1974 21.8936C68.1974 21.9406 68.2104 21.987 68.2252 22.0817L68.2258 22.0811Z" fill="white"/>
<path d="M85.6945 31.8067C85.4382 31.8067 85.1801 31.7919 84.925 31.8098C84.4544 31.8439 84.0586 31.8185 84.0141 31.1936C83.9943 30.9102 83.806 31.0426 83.6707 31.136C82.2694 32.1037 80.7292 32.3679 79.0883 31.9787C77.9457 31.7077 77.0293 31.0983 76.7452 29.8807C76.4524 28.6265 76.4778 27.3885 77.5567 26.4641C78.2564 25.8652 79.1327 25.6282 80.035 25.4977C80.8595 25.3783 81.6827 25.2533 82.506 25.1252C82.6634 25.1005 82.8191 25.0572 82.9716 25.0089C83.5855 24.8153 83.8696 24.5108 83.89 24.0363C83.911 23.5364 83.5528 23.0061 83.0408 22.8026C82.4541 22.5693 81.8452 22.5792 81.2424 22.7067C80.6736 22.8273 80.3111 23.2047 80.1684 23.7628C80.0659 24.1644 79.8362 24.2955 79.4366 24.2788C78.8283 24.2535 78.2181 24.2751 77.6085 24.2726C76.9971 24.2702 76.865 24.1223 77.0107 23.5091C77.2516 22.4969 77.8506 21.713 78.7776 21.2787C80.9095 20.2788 83.1019 20.1297 85.2937 21.09C86.3343 21.546 86.8741 22.367 86.9402 23.5388C87.0409 25.3226 86.8531 27.1008 86.9099 28.8827C86.9365 29.7217 87.0168 30.5489 87.1977 31.3656C87.2688 31.6867 87.1767 31.816 86.8482 31.8061C86.4634 31.7944 86.0787 31.803 85.6939 31.803V31.8067H85.6945ZM83.8381 27.4974C83.8504 27.4021 83.8671 27.3068 83.8745 27.2109C83.9159 26.6819 83.8239 26.612 83.3273 26.7865C82.9012 26.9362 82.4566 26.9968 82.0125 27.0643C81.4128 27.1546 80.7996 27.1985 80.274 27.5642C79.4922 28.1074 79.5169 29.3053 80.3271 29.7934C81.5808 30.5483 83.3712 29.8139 83.7288 28.405C83.8047 28.1056 83.8226 27.803 83.8381 27.4986V27.4974Z" fill="white"/>
<path d="M103.436 24.0847C103.259 24.0847 103.081 24.0686 102.907 24.0878C102.332 24.1503 101.855 24.0804 101.725 23.3794C101.699 23.2427 101.549 23.1115 101.427 23.0143C100.839 22.5472 99.5024 22.4785 98.8602 22.8702C98.1963 23.2748 98.1938 23.9573 98.8737 24.3508C99.3925 24.6508 99.973 24.7962 100.555 24.9126C101.373 25.0759 102.18 25.2764 102.978 25.5232C105.245 26.2261 105.607 28.1534 104.887 29.8938C104.598 30.593 104.078 31.1133 103.408 31.4165C101.106 32.4584 98.7972 32.4665 96.5794 31.2049C95.624 30.661 95.146 29.7231 95.0466 28.6075C95.0194 28.305 95.1207 28.1961 95.4104 28.1986C96.1156 28.2054 96.8215 28.2066 97.5268 28.1986C97.8195 28.1955 97.9949 28.331 98.024 28.6088C98.1771 30.0801 100.747 30.442 101.73 29.5158C102.269 29.0078 102.214 28.2852 101.565 27.8904C100.899 27.4852 100.13 27.3441 99.3783 27.1888C98.6693 27.0422 97.9739 26.8609 97.2915 26.6239C96.1224 26.2181 95.3109 25.4966 95.214 24.1881C95.1195 22.9222 95.9149 21.548 97.084 21.0734C99.0028 20.2957 100.964 20.2178 102.886 21.0475C103.985 21.522 104.631 22.4198 104.843 23.6188C104.904 23.9678 104.785 24.094 104.446 24.0816C104.11 24.0693 103.773 24.0792 103.436 24.0792V24.0841V24.0847Z" fill="white"/>
<path d="M89.4791 27.5034C89.4791 26.2672 89.4853 25.0316 89.4772 23.796C89.4717 22.9546 89.4371 22.9286 88.6157 22.9267C87.987 22.9251 87.672 22.6118 87.6708 21.9869C87.6708 20.6987 87.5701 20.88 88.7608 20.8608C89.4118 20.8503 89.4828 20.7786 89.4828 20.1413C89.4828 19.4508 89.4927 18.7597 89.4785 18.0692C89.4711 17.7178 89.6131 17.5773 89.962 17.5848C90.6191 17.5984 91.2769 17.6015 91.934 17.5854C92.3212 17.5761 92.4317 17.7549 92.4243 18.1138C92.4089 18.8203 92.4243 19.5269 92.4219 20.2341C92.42 20.6864 92.596 20.919 93.0876 20.8732C93.4532 20.8392 93.8244 20.8677 94.1931 20.8615C94.547 20.8559 94.7254 21.0044 94.7199 21.3787C94.6927 23.2305 94.9719 22.8884 93.276 22.9249C92.5126 22.9416 92.4972 22.9305 92.504 23.7057C92.5188 25.3428 92.4293 26.9824 92.588 28.6158C92.6553 29.3082 92.8523 29.4468 93.5619 29.456C94.8434 29.4727 94.7106 29.2469 94.7205 30.6533C94.7205 30.6693 94.7205 30.6854 94.7205 30.7015C94.7205 31.5397 94.2917 31.9662 93.4341 31.981C92.8233 31.9928 92.2174 31.968 91.6147 31.856C90.1158 31.5776 89.4544 30.8203 89.4056 29.2878C89.3865 28.6938 89.4025 28.0992 89.4025 27.5052C89.4278 27.5052 89.4538 27.5052 89.4791 27.5052V27.5034Z" fill="white"/>
<path d="M9.49824 13.0303C9.47848 11.6481 9.97934 10.5165 10.9533 9.5841C11.2602 9.29022 11.6425 9.16895 12.0402 9.11512C12.3428 9.07366 12.6566 9.09223 12.9641 9.11017C13.2599 9.12687 13.4915 9.28279 13.6441 9.53585C13.7497 9.71156 13.854 9.89346 13.9226 10.0859C14.2326 10.9607 14.6149 11.8059 14.983 12.6566C15.2177 13.1986 15.193 13.6955 14.7786 14.1465C14.5562 14.389 14.35 14.6464 14.127 14.889C13.7095 15.3431 13.6675 15.5207 14.0103 16.0621C14.8317 17.3595 15.8149 18.5165 17.0778 19.4099C17.7849 19.9105 18.5279 20.3485 19.3443 20.6523C19.8285 20.8323 20.2244 20.721 20.5665 20.3405C20.8438 20.0317 21.0415 19.6679 21.2811 19.3338C21.7338 18.7021 22.0018 18.6068 22.7237 18.8865C23.7619 19.2874 24.7544 19.7886 25.7431 20.2965C26.0507 20.4549 26.2026 20.6975 26.1902 21.0427C26.1297 22.7962 25.4572 23.6927 23.736 24.4054C22.746 24.8156 21.7319 24.7352 20.7395 24.4456C18.8324 23.8894 17.0191 23.121 15.4147 21.9163C14.1054 20.9326 12.982 19.7651 11.9889 18.4664C11.2559 17.508 10.5673 16.5218 10.0584 15.4204C9.7039 14.6532 9.47786 13.8582 9.5001 13.031L9.49824 13.0303Z" fill="white"/>
<path d="M52.6756 11.7863H51.5763V7.01479H46.2861V11.7863H45.1868V2.03784H46.2861V6.08981H51.5763V2.03784H52.6756V11.7863Z" fill="white"/>
<path d="M59.5779 11.7871H58.6108C58.6009 11.758 58.5886 11.5378 58.5743 11.1263C58.5595 10.7155 58.5521 10.4952 58.5521 10.4655C58.3761 10.9061 58.0438 11.268 57.5553 11.552C57.0668 11.836 56.5048 11.9777 55.87 11.9777C55.0393 11.9777 54.4242 11.7989 54.0234 11.4419C53.6226 11.0849 53.4225 10.593 53.4225 9.96623C53.4225 9.51643 53.4904 9.14396 53.6275 8.85069C53.764 8.5568 53.9839 8.32726 54.2871 8.16082C54.5897 7.99439 54.9072 7.8725 55.2394 7.79392C55.5717 7.71597 56.0064 7.64729 56.5437 7.58851C57.2472 7.51055 57.7456 7.4295 58.0383 7.34597C58.3316 7.26307 58.4928 7.11829 58.5219 6.91287C58.5219 5.75773 57.882 5.18047 56.6024 5.18047C55.3228 5.18047 54.6681 5.75835 54.6095 6.91287H53.6423C53.6714 5.21945 54.6731 4.37305 56.6469 4.37305C57.7017 4.37305 58.4539 4.61063 58.9035 5.08519C59.3525 5.55974 59.5779 6.27188 59.5779 7.22161V11.7877V11.7871ZM58.5373 9.15881L58.5521 7.86693C58.5132 7.92571 58.457 7.97211 58.3835 8.00614C58.31 8.04079 58.2001 8.07235 58.0537 8.10143C57.9074 8.1305 57.7801 8.15278 57.6727 8.16763C57.5652 8.18248 57.3867 8.20228 57.1379 8.22641C56.889 8.25115 56.6957 8.27281 56.5592 8.29261C55.7971 8.39037 55.2548 8.54443 54.9325 8.75479C54.6101 8.96515 54.4489 9.33453 54.4489 9.86353C54.4489 10.7644 54.9961 11.2142 56.0904 11.2142C56.7253 11.2142 57.2824 11.0261 57.761 10.6487C58.2396 10.2719 58.4984 9.77505 58.5379 9.15819L58.5373 9.15881Z" fill="white"/>
<path d="M61.6141 11.7862H60.6173V4.56274H66.8895V11.7862H65.8785V5.39987H61.6141V11.7862Z" fill="white"/>
<path d="M68.9138 11.7862H67.917V4.56274H68.928V10.4356L73.0899 4.56274H74.1743V11.7862H73.1776V5.81069L68.9132 11.7862H68.9138Z" fill="white"/>
<path d="M84.7399 11.7862H75.2144V4.56274H76.2111V10.9491H79.4936V4.56274H80.4607V10.9491H83.7431V4.56274H84.7399V11.7862Z" fill="white"/>
<path d="M86.7622 11.7862H85.7654V4.56274H86.7764V10.4356L90.9382 4.56274H92.0227V11.7862H91.0259V5.81069L86.7615 11.7862H86.7622Z" fill="white"/>
<path d="M96.6683 11.7862H95.6715V5.39987H92.7405V4.56274H99.5987V5.39987H96.6677V11.7862H96.6683Z" fill="white"/>
<path d="M104.685 9.65873H105.754C105.549 10.3925 105.183 10.963 104.655 11.3695C104.128 11.776 103.492 11.9789 102.75 11.9789C100.463 11.9789 99.3203 10.6672 99.3203 8.04389C99.3203 6.91844 99.6137 6.02502 100.2 5.36423C100.786 4.70344 101.602 4.37305 102.647 4.37305C103.693 4.37305 104.477 4.72819 105.029 5.43724C105.581 6.1469 105.857 7.13809 105.857 8.41016H100.347C100.366 9.30112 100.579 9.98108 100.984 10.4507C101.389 10.9203 101.964 11.1554 102.706 11.1554C103.185 11.1554 103.602 11.023 103.959 10.7588C104.315 10.4946 104.557 10.1277 104.685 9.6575V9.65873ZM100.376 7.73515H104.802C104.792 6.95247 104.59 6.33561 104.194 5.88519C103.798 5.43538 103.273 5.20955 102.618 5.20955C101.964 5.20955 101.407 5.43476 101.006 5.88519C100.606 6.33561 100.396 6.95185 100.376 7.73515Z" fill="white"/>
<path d="M111.103 11.7862H110.106V4.56274H111.103V7.70458H115.368V4.56274H116.379V11.7862H115.368V8.52685H111.103V11.7862Z" fill="white"/>
<path d="M123.341 11.7871H122.374C122.364 11.758 122.351 11.5378 122.337 11.1263C122.322 10.7155 122.315 10.4952 122.315 10.4655C122.139 10.9061 121.807 11.268 121.318 11.552C120.83 11.836 120.268 11.9777 119.633 11.9777C118.802 11.9777 118.187 11.7989 117.786 11.4419C117.385 11.0849 117.185 10.593 117.185 9.96623C117.185 9.51643 117.253 9.14396 117.39 8.85069C117.527 8.5568 117.747 8.32726 118.05 8.16082C118.353 7.99439 118.67 7.8725 119.002 7.79392C119.334 7.71597 119.769 7.64729 120.307 7.58851C121.01 7.51055 121.508 7.4295 121.801 7.34597C122.094 7.26307 122.256 7.11829 122.285 6.91287C122.285 5.75773 121.645 5.18047 120.365 5.18047C119.086 5.18047 118.431 5.75835 118.372 6.91287H117.405C117.434 5.21945 118.436 4.37305 120.41 4.37305C121.465 4.37305 122.217 4.61063 122.666 5.08519C123.115 5.55974 123.341 6.27188 123.341 7.22161V11.7877V11.7871ZM122.3 9.15881L122.315 7.86693C122.276 7.92571 122.22 7.97211 122.146 8.00614C122.073 8.04079 121.963 8.07235 121.817 8.10143C121.67 8.1305 121.543 8.15278 121.435 8.16763C121.328 8.18248 121.15 8.20228 120.901 8.22641C120.652 8.25115 120.458 8.27281 120.322 8.29261C119.56 8.39037 119.018 8.54443 118.695 8.75479C118.373 8.96515 118.212 9.33453 118.212 9.86353C118.212 10.7644 118.759 11.2142 119.853 11.2142C120.488 11.2142 121.045 11.0261 121.524 10.6487C122.002 10.2719 122.261 9.77505 122.301 9.15819L122.3 9.15881Z" fill="white"/>
<path d="M132.191 11.7862H131.268V5.75253L128.806 11.7869H127.78L125.303 5.76738V11.7869H124.38V4.56274H125.831L128.307 10.6701L130.784 4.56274H132.191V11.7862H132.191Z" fill="white"/>
<path d="M140.238 11.7862H136.604V4.56274H140.56C141.381 4.56274 141.977 4.7168 142.348 5.02492C142.719 5.33304 142.905 5.74697 142.905 6.26545C142.905 6.70597 142.786 7.07287 142.546 7.36676C142.307 7.66065 141.992 7.83204 141.601 7.88091C142.021 7.95949 142.382 8.15996 142.685 8.48292C142.988 8.80589 143.14 9.23652 143.14 9.7748C143.14 10.4016 142.905 10.8934 142.437 11.2504C141.968 11.6081 141.235 11.7862 140.239 11.7862H140.238ZM137.585 7.58702H140.37C141.386 7.58702 141.894 7.20528 141.894 6.44178C141.894 5.67829 141.352 5.28169 140.268 5.28169H137.586V7.58702H137.585ZM137.585 11.037H140.092C141.44 11.037 142.114 10.5773 142.114 9.65663C142.114 8.73598 141.543 8.30597 140.4 8.30597H137.586V11.037H137.585Z" fill="white"/>
</g>
<defs>
<clipPath id="clip0_1_839">
<rect width="142.952" height="35.6343" fill="white" transform="translate(0.362305 0.00341797)"/>
</clipPath>
</defs>
</svg>
