<svg width="48" height="48" viewBox="0 0 48 48" fill="none" xmlns="http://www.w3.org/2000/svg">
<path d="M27.56 30.5999L39.56 42.5999L43.78 38.2799L31.78 26.2799L27.56 30.5999ZM35 20.1999C34.22 20.1999 33.38 20.0999 32.72 19.8199L9.94 42.4999L5.72 38.2799L20.54 23.4799L17 19.9199L15.56 21.3199L12.66 18.4999V24.2199L11.26 25.6199L4.22 18.4999L5.62 17.0999H11.24L8.44 14.2799L15.56 7.1599C16.1131 6.60382 16.7707 6.16253 17.4949 5.86141C18.2191 5.56029 18.9957 5.40527 19.78 5.40527C20.5643 5.40527 21.3409 5.56029 22.0651 5.86141C22.7893 6.16253 23.4469 6.60382 24 7.1599L19.78 11.4799L22.6 14.2799L21.18 15.6999L24.76 19.2599L28.4 15.4999C28.12 14.8399 28 13.9999 28 13.2599C27.9921 12.3366 28.1674 11.4208 28.5159 10.5657C28.8644 9.7106 29.379 8.93314 30.0301 8.27835C30.6812 7.62356 31.4557 7.10447 32.3088 6.75112C33.1619 6.39778 34.0766 6.21722 35 6.2199C36.18 6.2199 37.22 6.4999 38.16 7.0599L32.82 12.3999L35.82 15.3999L41.16 10.0599C41.72 10.9999 42 11.9999 42 13.2599C42 17.0999 38.9 20.1999 35 20.1999Z" fill="#F89530"/>
</svg>
