<svg width="48" height="60" viewBox="0 0 48 60" fill="none" xmlns="http://www.w3.org/2000/svg">
<g clip-path="url(#clip0_14_7)">
<path d="M25.1202 2.79074C25.1202 2.10676 25.1202 1.42338 25.1202 0.739406C25.1202 0.462006 25.1497 0.179248 25.4327 0.0506681C25.7236 -0.0808886 25.9839 0.0649548 26.1972 0.258421C26.7652 0.773933 27.3247 1.29837 27.8842 1.82282C30.0869 3.88546 32.289 5.9487 34.4899 8.01313C35.2015 8.68103 35.2261 9.57395 34.5218 10.2371C31.9843 12.6271 29.4378 15.0071 26.8944 17.3912C26.6474 17.6227 26.4076 17.8626 26.1473 18.0787C25.946 18.2454 25.7098 18.3906 25.4351 18.2555C25.1671 18.1239 25.1208 17.865 25.1208 17.5959C25.1202 16.4959 25.1244 15.3958 25.116 14.2957C25.113 13.9403 25.0884 13.582 24.9718 13.2409C24.7872 12.7015 24.5517 12.5759 23.9789 12.623C23.2625 12.6825 22.5431 12.6831 21.8261 12.7623C19.9137 12.973 18.0608 13.4165 16.3143 14.21C10.6492 16.7822 7.23244 21.1563 5.90602 27.1496C5.49072 29.0277 5.46789 30.9391 5.69446 32.8518C6.11277 36.3907 7.48426 39.5266 9.74825 42.2869C9.8366 42.3947 9.91834 42.5102 10.0211 42.603C10.2675 42.8245 10.2243 43.0525 10.0578 43.2894C9.96642 43.4198 9.88228 43.5567 9.7759 43.6733C8.92428 44.6079 8.02817 45.4991 7.08279 46.3408C7.05334 46.367 7.02089 46.3908 6.98843 46.4146C6.38562 46.8551 6.27684 46.8402 5.79183 46.2848C3.27842 43.4061 1.57336 40.1148 0.668847 36.4181C0.284202 34.8471 0.0726481 33.253 0.0155525 31.6332C-0.140108 27.2133 0.852755 23.0624 2.97972 19.1853C5.21366 15.113 8.402 11.9539 12.4624 9.65848C15.0774 8.1804 17.8757 7.2089 20.8513 6.75292C21.9673 6.58207 23.0918 6.47969 24.2247 6.49278C24.6767 6.49814 24.7975 6.40587 24.9483 5.98322C25.0835 5.60403 25.1052 5.20638 25.1142 4.81171C25.1298 4.13845 25.1184 3.464 25.1184 2.79014C25.119 2.79014 25.1196 2.79014 25.1202 2.79014V2.79074Z" fill="#F89530"/>
<path d="M23.2397 45.0502C23.2397 45.883 23.2361 46.7152 23.2421 47.548C23.2445 47.9052 23.3004 48.257 23.414 48.5987C23.4855 48.8147 23.6208 48.9076 23.8594 48.9094C28.3771 48.9344 32.3594 47.4813 35.7996 44.6037C38.8743 42.0315 40.952 38.8069 41.8259 34.9048C43.0892 29.2646 41.9791 24.097 38.4464 19.4692C38.2595 19.2246 38.0654 18.9829 37.8508 18.7621C37.6615 18.5674 37.6753 18.3858 37.7991 18.1745C37.9506 17.9162 38.1225 17.6703 38.3328 17.459C39.0775 16.7107 39.8299 15.9708 40.5818 15.2297C40.6593 15.1529 40.7483 15.0874 40.8354 15.0201C41.5061 14.501 41.6089 14.5165 42.1624 15.1547C45.0545 18.4864 46.8761 22.3206 47.6532 26.6418C47.8516 27.7424 47.9477 28.855 47.9868 29.9759C48.1064 33.394 47.4916 36.6758 46.1748 39.8296C45.0461 42.5334 43.4444 44.9335 41.3919 47.0408C38.5985 49.9089 35.2953 51.9602 31.4483 53.1365C29.6855 53.6752 27.8801 53.9931 26.0374 54.1205C25.3673 54.1669 24.6984 54.1693 24.0295 54.1663C23.7229 54.1651 23.5396 54.2919 23.4345 54.5634C23.304 54.9003 23.2439 55.2503 23.2433 55.6093C23.2397 56.7885 23.2427 57.9678 23.2415 59.1476C23.2415 59.4714 23.2343 59.8185 22.8797 59.9608C22.5438 60.0959 22.2883 59.8703 22.0594 59.6554C19.8272 57.5659 17.5963 55.4747 15.3647 53.3847C14.8701 52.9216 14.3707 52.465 13.8773 52.0007C13.1188 51.2869 13.1248 50.4018 13.8821 49.6934C16.4123 47.3248 18.9413 44.9544 21.471 42.5845C21.6964 42.3732 21.9205 42.1607 22.1537 41.9583C22.3623 41.7773 22.6015 41.6166 22.8869 41.7345C23.1874 41.8583 23.2373 42.1494 23.2391 42.4351C23.2445 43.3072 23.2409 44.1793 23.2415 45.0514L23.2397 45.0502Z" fill="#F89530"/>
<path d="M17.321 34.4923C18.5801 34.537 19.7593 34.4709 20.9391 34.4572C21.2804 34.4531 21.6194 34.4828 21.9482 34.5751C22.7908 34.812 23.277 35.5585 23.1754 36.4425C23.0877 37.2032 22.3929 37.8533 21.5725 37.8688C20.323 37.8932 19.0735 37.8747 17.8235 37.8741C16.5229 37.8741 15.2217 37.8706 13.9211 37.8747C13.629 37.8753 13.3405 37.8461 13.0575 37.7878C12.3495 37.642 11.838 37.2562 11.6133 36.5532C11.3674 35.7835 11.4888 35.0811 12.0472 34.4798C12.6524 33.8274 13.3778 33.3101 14.0648 32.7494C15.0065 31.9809 15.9718 31.2391 16.857 30.4052C17.4899 29.8087 18.0681 29.1664 18.4533 28.377C18.6793 27.9139 18.7947 27.4311 18.7694 26.9121C18.7226 25.9519 17.928 25.3155 16.9676 25.4584C16.3191 25.5548 15.8942 25.9007 15.6556 26.4936C15.515 26.843 15.39 27.2002 15.2247 27.5383C14.8737 28.255 14.0419 28.6949 13.2967 28.5836C12.4613 28.4586 11.942 27.9508 11.7695 27.0912C11.6938 26.7144 11.731 26.3412 11.8122 25.9715C12.2732 23.872 14.1868 22.1867 16.3504 21.9528C17.4893 21.8296 18.6078 21.8748 19.6902 22.276C22.3448 23.2606 23.6208 26.0953 22.6117 28.7521C22.2246 29.77 21.6044 30.6409 20.8652 31.432C19.9035 32.4612 18.8193 33.3536 17.6948 34.2007C17.5855 34.2828 17.4791 34.3691 17.3216 34.4929L17.321 34.4923Z" fill="#F89530"/>
<path d="M34.2832 27.6423C34.2832 29.0264 34.288 30.1764 34.279 31.3259C34.2772 31.5551 34.3325 31.6789 34.5885 31.6795C34.7971 31.6795 35.0099 31.6962 35.2142 31.7367C36.0051 31.8932 36.5196 32.523 36.5046 33.2981C36.4895 34.0577 35.9624 34.6392 35.1559 34.7726C34.9401 34.8083 34.719 34.8321 34.5002 34.8303C34.2886 34.8291 34.2279 34.9113 34.2237 35.1131C34.2147 35.5774 34.2718 36.0435 34.1708 36.5054C33.9371 37.5734 33.0722 38.2091 31.9832 38.1062C31.027 38.0157 30.2439 37.1311 30.2258 36.1167C30.2204 35.7994 30.2078 35.4816 30.2288 35.1655C30.2469 34.8952 30.1381 34.8315 29.8821 34.8339C28.5112 34.844 27.1403 34.822 25.7694 34.8434C24.449 34.8637 23.8618 34.066 23.7812 33.0243C23.6983 31.9533 23.9291 31.0348 24.5836 30.1616C26.3481 27.806 28.0833 25.4285 29.7919 23.0331C30.5913 21.9122 31.9646 21.7699 32.9688 22.1806C33.7495 22.4997 34.139 23.1176 34.2231 23.926C34.3602 25.2404 34.2406 26.5601 34.2832 27.6417V27.6423ZM30.5798 26.9726C30.5636 26.9691 30.5474 26.9655 30.5305 26.9619C29.5593 28.4471 28.5899 29.933 27.6157 31.4158C27.4732 31.6325 27.5724 31.6587 27.7695 31.6575C28.5184 31.6533 29.2678 31.6462 30.0161 31.6617C30.2841 31.667 30.3472 31.5706 30.3593 31.3188C30.3965 30.5592 30.3905 29.7978 30.4572 29.0389C30.5179 28.3519 30.5402 27.6614 30.5798 26.9726Z" fill="#F89530"/>
</g>
<defs>
<clipPath id="clip0_14_7">
<rect width="48" height="60" fill="white"/>
</clipPath>
</defs>
</svg>
