<svg width="194" height="56" viewBox="0 0 194 56" fill="none" xmlns="http://www.w3.org/2000/svg">
<g clip-path="url(#clip0_1_863)">
<path d="M80.8165 25.6552C80.9973 26.9425 81.4945 28 82.3985 28.9655C83.3025 29.931 84.4777 30.6207 86.0144 31.1264C87.506 31.6322 89.2688 31.9081 91.2576 31.9081C93.2464 31.9081 94.7831 31.7241 96.1843 31.3563C97.5855 30.9885 98.6703 30.4368 99.3935 29.7012C100.162 28.9655 100.523 28.1379 100.523 27.1264C100.523 26.2989 100.297 25.6092 99.8907 25.1035C99.4839 24.5977 98.7607 24.1379 97.8115 23.8161C96.8171 23.4943 95.5063 23.2184 93.7887 23.0345L86.4664 22.2069C83.3477 21.8391 80.7713 21.2414 78.7825 20.3678C76.7938 19.4943 75.3474 18.2989 74.3982 16.8736C73.449 15.4023 72.997 13.6552 72.997 11.5862C72.997 9.24139 73.675 7.17242 75.0762 5.47127C76.4774 3.72415 78.4661 2.43679 81.0425 1.51725C83.6189 0.59771 86.602 0.137939 90.0372 0.137939C93.4723 0.137939 96.3651 0.643687 99.0319 1.65518C101.699 2.66668 103.778 4.04599 105.315 5.88507C106.851 7.67817 107.71 9.79311 107.846 12.1379H99.5291C99.3935 11.0345 98.8963 10.115 98.0827 9.28736C97.2691 8.45978 96.1843 7.86208 94.7831 7.40231C93.3819 6.94254 91.7548 6.75863 89.9468 6.75863C88.184 6.75863 86.6924 6.94254 85.3816 7.31035C84.0709 7.67817 83.0765 8.18392 82.3985 8.87357C81.7205 9.56323 81.3589 10.3908 81.3589 11.3104C81.3589 12.092 81.5397 12.6897 81.9465 13.1954C82.3533 13.7012 82.9861 14.115 83.8901 14.4368C84.7941 14.7586 86.0596 15.0345 87.5964 15.2184L95.1899 16.1379C98.5799 16.5517 101.247 17.1494 103.19 17.931C105.179 18.7127 106.58 19.8161 107.439 21.1035C108.298 22.4368 108.75 24.1379 108.75 26.2529C108.75 28.7356 108.027 30.8966 106.535 32.7356C105.043 34.5747 103.009 36.046 100.297 37.0575C97.6307 38.069 94.5119 38.5747 91.0316 38.5747C87.5512 38.5747 84.2517 38.023 81.4945 36.9655C78.7373 35.9081 76.5226 34.3908 74.9406 32.4598C73.3586 30.5287 72.4998 28.2759 72.4094 25.7471H80.7713L80.8165 25.6552Z" fill="white"/>
<path d="M120.728 25.6552C120.908 26.9425 121.406 28 122.31 28.9655C123.214 29.931 124.389 30.6207 125.926 31.1264C127.417 31.6322 129.18 31.9081 131.169 31.9081C133.157 31.9081 134.694 31.7241 136.095 31.3563C137.497 30.9885 138.581 30.4368 139.305 29.7012C140.073 28.9655 140.435 28.1379 140.435 27.1264C140.435 26.2989 140.209 25.6092 139.802 25.1035C139.395 24.5977 138.672 24.1379 137.723 23.8161C136.728 23.4943 135.417 23.2184 133.7 23.0345L126.378 22.2069C123.259 21.8391 120.682 21.2414 118.694 20.3678C116.705 19.4943 115.259 18.2989 114.309 16.8736C113.36 15.4023 112.908 13.6552 112.908 11.5862C112.908 9.24139 113.586 7.17242 114.987 5.47127C116.389 3.72415 118.377 2.43679 120.954 1.51725C123.53 0.59771 126.513 0.137939 129.948 0.137939C133.383 0.137939 136.276 0.643687 138.943 1.65518C141.61 2.66668 143.689 4.04599 145.226 5.88507C146.763 7.67817 147.621 9.79311 147.757 12.1379H139.44C139.305 11.0345 138.807 10.115 137.994 9.28736C137.18 8.45978 136.095 7.86208 134.694 7.40231C133.293 6.94254 131.666 6.75863 129.858 6.75863C128.095 6.75863 126.604 6.94254 125.293 7.31035C123.982 7.67817 122.988 8.18392 122.31 8.87357C121.632 9.56323 121.27 10.3908 121.27 11.3104C121.27 12.092 121.451 12.6897 121.858 13.1954C122.264 13.7012 122.897 14.115 123.801 14.4368C124.705 14.7586 125.971 15.0345 127.508 15.2184L135.101 16.1379C138.491 16.5517 141.158 17.1494 143.101 17.931C145.09 18.7127 146.491 19.8161 147.35 21.1035C148.209 22.4368 148.661 24.1379 148.661 26.2529C148.661 28.7356 147.938 30.8966 146.446 32.7356C144.955 34.5747 142.921 36.046 140.209 37.0575C137.542 38.069 134.423 38.5747 130.943 38.5747C127.462 38.5747 124.163 38.023 121.406 36.9655C118.648 35.9081 116.434 34.3908 114.852 32.4598C113.27 30.5287 112.411 28.2759 112.321 25.7471H120.682L120.728 25.6552Z" fill="white"/>
<path d="M193.544 22.6666C193.182 25.793 192.098 28.5516 190.335 30.9424C188.527 33.3333 186.176 35.1723 183.238 36.5057C180.3 37.839 176.956 38.4827 173.249 38.4827C169.136 38.4827 165.52 37.7011 162.356 36.0919C159.192 34.4827 156.797 32.2298 155.034 29.3333C153.316 26.4367 152.458 23.0804 152.458 19.2643C152.458 15.4482 153.316 12.0919 155.034 9.19532C156.752 6.29877 159.192 4.0459 162.356 2.4367C165.52 0.827508 169.136 0.0458984 173.249 0.0458984C176.956 0.0458984 180.3 0.689577 183.238 2.02291C186.176 3.35624 188.527 5.19532 190.335 7.58613C192.143 9.97693 193.182 12.7356 193.544 15.862H185.272C184.911 14.1149 184.233 12.5976 183.193 11.3562C182.154 10.0689 180.752 9.10337 179.08 8.41371C177.408 7.72406 175.419 7.40222 173.249 7.40222C170.718 7.40222 168.503 7.90797 166.65 8.87348C164.797 9.839 163.351 11.2183 162.356 13.0114C161.362 14.8045 160.865 16.9195 160.865 19.3103C160.865 21.7011 161.362 23.816 162.356 25.6091C163.351 27.4022 164.797 28.7815 166.65 29.747C168.503 30.7126 170.718 31.2183 173.249 31.2183C176.594 31.2183 179.306 30.4827 181.385 29.0114C183.51 27.5401 184.775 25.4252 185.318 22.7585H193.589L193.544 22.6666Z" fill="white"/>
<path d="M78.0594 52.5521L77.5622 52.6441C77.3814 52.2303 77.1554 51.9085 76.7938 51.6786C76.4322 51.4487 76.0254 51.3567 75.483 51.3567C74.805 51.3567 74.2626 51.5407 73.8558 51.9085C73.449 52.2763 73.2682 52.782 73.2682 53.4717C73.2682 54.1613 73.449 54.6671 73.8558 55.0349C74.2626 55.4027 74.805 55.5866 75.483 55.5866C76.0254 55.5866 76.4774 55.4487 76.839 55.2188C77.2006 54.9889 77.4718 54.6211 77.5622 54.1613L78.0594 54.2533C77.9238 54.805 77.6074 55.2648 77.1554 55.5866C76.7034 55.9085 76.1158 56.0464 75.483 56.0464C74.6694 56.0464 73.9914 55.8165 73.4942 55.3567C72.9971 54.897 72.7711 54.2993 72.7711 53.4717C72.7711 52.6441 73.0423 52.0464 73.4942 51.5866C73.9914 51.1269 74.6694 50.897 75.483 50.897C76.0706 50.897 76.613 51.0349 77.065 51.3108C77.517 51.5866 77.8334 52.0004 78.0594 52.5062V52.5521Z" fill="white"/>
<path d="M80.2742 53.4253C80.2742 52.6437 80.5002 52 80.9974 51.5402C81.4946 51.0805 82.1274 50.8506 82.9861 50.8506C83.4833 50.8506 83.9353 50.9425 84.3421 51.1724C84.7489 51.3563 85.0653 51.6782 85.2913 52.092C85.5173 52.5058 85.6529 52.9655 85.6529 53.4713C85.6529 54.2989 85.4269 54.8966 84.9297 55.3563C84.4325 55.8161 83.7997 56.046 82.9409 56.046C82.0822 56.046 81.4494 55.8161 80.9522 55.3563C80.455 54.8966 80.229 54.2529 80.229 53.4713L80.2742 53.4253ZM81.359 51.8621C80.9522 52.2299 80.7714 52.7816 80.7714 53.4253C80.7714 54.069 80.9522 54.6207 81.359 54.9885C81.7658 55.3563 82.2629 55.5402 82.9861 55.5402C83.7093 55.5402 84.2065 55.3563 84.6133 54.9885C84.9749 54.6207 85.2009 54.115 85.2009 53.4253C85.2009 52.7356 85.0201 52.2299 84.6133 51.8621C84.2517 51.4943 83.7093 51.3104 83.0313 51.3104C82.3533 51.3104 81.811 51.4943 81.4042 51.8621H81.359Z" fill="white"/>
<path d="M92.9752 50.9426V55.8622H92.478V51.4024H90.1276V53.9771C90.1276 54.2989 90.1276 54.5748 90.0372 54.8047C89.9468 55.0346 89.8565 55.2185 89.7661 55.3564C89.6757 55.4944 89.4949 55.5863 89.3593 55.6783C89.1785 55.7702 88.9977 55.8162 88.8621 55.8622C88.7265 55.9081 88.5005 55.8622 88.2745 55.8622H87.9581V55.4024H88.2745C88.2745 55.4024 88.5909 55.4024 88.7265 55.4024C88.8621 55.4024 88.9525 55.3564 89.0881 55.3104C89.2237 55.2645 89.3141 55.1725 89.4045 55.0806C89.4949 54.9886 89.5401 54.8047 89.5853 54.6208C89.6304 54.4369 89.6757 54.207 89.6757 53.9311V51.0346H93.0656L92.9752 50.9426Z" fill="white"/>
<path d="M95.4612 50.9426H95.9584V53.1495H99.8907V50.9426H100.388V55.8622H99.8907V53.6093H95.9584V55.8622H95.4612V50.9426Z" fill="white"/>
<path d="M102.919 50.9426H107.575V51.4024H103.416V53.1955H107.529V53.6553H103.416V55.4484H107.575V55.9081H102.919V50.9886V50.9426Z" fill="white"/>
<path d="M110.332 52.3679C110.332 52.7357 110.513 53.0116 110.829 53.1955C111.145 53.3794 111.552 53.5173 112.095 53.5173C112.592 53.5173 112.999 53.4254 113.315 53.3334C113.631 53.1955 113.857 53.0576 113.948 52.9196L114.174 53.1495C113.767 53.7012 113.044 53.9771 112.095 53.9771C111.462 53.9771 110.919 53.8392 110.513 53.5633C110.106 53.2875 109.88 52.9196 109.88 52.5058V50.9886H110.377V52.4139L110.332 52.3679ZM113.767 50.9426H114.264V55.8622H113.767V50.9426Z" fill="white"/>
<path d="M116.795 50.9426H117.292V53.1495H121.225V50.9426H121.722V55.8622H121.225V53.6093H117.292V55.8622H116.795V50.9426Z" fill="white"/>
<path d="M124.75 53.1954H126.694C127.327 53.1954 127.869 53.3334 128.276 53.5632C128.683 53.7931 128.864 54.1609 128.864 54.5747C128.864 54.9885 128.683 55.2644 128.321 55.5402C127.96 55.7701 127.417 55.9081 126.784 55.9081H124.253V50.9885H124.75V53.1954ZM124.75 55.4483H126.694C127.824 55.4483 128.366 55.1724 128.366 54.5747C128.366 54.2989 128.231 54.069 127.914 53.9311C127.598 53.7931 127.191 53.7012 126.604 53.7012H124.705V55.4943L124.75 55.4483ZM129.542 50.9885H130.039V55.9081H129.542V50.9885Z" fill="white"/>
<path d="M132.57 50.9426H137.225V51.4024H133.067V53.1955H137.18V53.6553H133.067V55.4484H137.225V55.9081H132.57V50.9886V50.9426Z" fill="white"/>
<path d="M148.299 51.4024H144.412V53.1955H146.672C147.26 53.1955 147.757 53.3334 148.164 53.5633C148.525 53.8392 148.706 54.161 148.706 54.5748C148.706 54.9426 148.525 55.2645 148.164 55.4943C147.802 55.7242 147.35 55.8622 146.762 55.8622H143.915V50.9426H148.299V51.4024ZM144.412 55.4024H146.672C147.712 55.4024 148.209 55.1265 148.209 54.5288C148.209 54.253 148.073 54.0231 147.802 53.8852C147.531 53.7012 147.124 53.6553 146.627 53.6553H144.412V55.4484V55.4024Z" fill="white"/>
<path d="M153.723 51.5863L151.373 55.8622H150.785L153.497 50.9426H154.266L156.978 55.8622H156.435L154.04 51.5863L153.949 51.3104H153.859L153.768 51.5863H153.723ZM152.051 53.9311H155.667V54.3909H152.051V53.9311Z" fill="white"/>
<path d="M159.012 50.9426H163.983V51.4024H161.769V55.8622H161.272V51.4024H159.057V50.9426H159.012Z" fill="white"/>
<path d="M168.91 51.5863L166.56 55.8622H165.972L168.684 50.9426H169.453L172.165 55.8622H171.622L169.227 51.5863L169.136 51.3104H169.046L168.955 51.5863H168.91ZM167.238 53.9311H170.854V54.3909H167.238V53.9311Z" fill="white"/>
<path d="M174.379 55.8622V50.9426H177.046C177.634 50.9426 178.131 51.0806 178.492 51.3564C178.854 51.6323 179.035 51.9541 179.035 52.4139C179.035 52.8737 178.854 53.1955 178.492 53.4254C178.131 53.7012 177.634 53.7932 177.001 53.7932H174.831V55.8622H174.334H174.379ZM174.876 53.3794H176.956C177.453 53.3794 177.86 53.2875 178.131 53.1035C178.402 52.9196 178.538 52.6898 178.538 52.3679C178.538 52.0461 178.402 51.8162 178.131 51.6323C177.86 51.4484 177.453 51.3564 176.956 51.3564H174.876V53.3334V53.3794Z" fill="white"/>
<path d="M181.385 50.9426H186.041V51.4024H181.882V53.1955H185.996V53.6553H181.882V55.4484H186.041V55.9081H181.385V50.9886V50.9426Z" fill="white"/>
<path d="M188.888 50.9426V55.2645L192.73 50.9426H193.363V55.8622H192.866V51.5403L189.024 55.8622H188.391V50.9426H188.888Z" fill="white"/>
<path d="M24.8597 27.1724H8.94948V24.4598C8.94948 20.3218 10.6671 16.5977 13.605 13.7931C16.543 10.9885 20.6109 9.24139 25.2213 9.24139V0.137939C18.351 0.137939 12.0682 2.80461 7.5031 7.17242C2.89276 11.5402 0 17.7012 0 24.5058V36.3218H24.8597V27.2184V27.1724Z" fill="#F29509"/>
<path d="M24.8145 27.1264H40.6795V29.839C40.6795 33.977 38.9619 37.7011 36.0239 40.5057C33.086 43.3103 29.018 45.0574 24.4077 45.0574V54.1609C31.278 54.1609 37.5607 51.4942 42.1258 47.1264C46.691 42.7586 49.6289 36.5977 49.6289 29.7931V18.0229H24.8145V27.1264Z" fill="#F29509"/>
</g>
<defs>
<clipPath id="clip0_1_863">
<rect width="193.544" height="56" fill="white"/>
</clipPath>
</defs>
</svg>
