<svg width="48" height="48" viewBox="0 0 48 48" fill="none" xmlns="http://www.w3.org/2000/svg">
<path d="M24 4.79999V15.6C24 16.5548 24.3793 17.4704 25.0544 18.1456C25.7295 18.8207 26.6452 19.2 27.6 19.2H38.4V39.6C38.4 40.5548 38.0207 41.4704 37.3456 42.1456C36.6704 42.8207 35.7548 43.2 34.8 43.2H23.3832C25.1757 41.0293 26.2273 38.3425 26.3844 35.5318C26.5415 32.7211 25.796 29.9337 24.2566 27.5768C22.7172 25.2199 20.4646 23.4168 17.8278 22.4309C15.191 21.4451 12.3081 21.328 9.59999 22.0968V8.39999C9.59999 7.44521 9.97928 6.52953 10.6544 5.8544C11.3295 5.17927 12.2452 4.79999 13.2 4.79999H24ZM26.4 5.39999V15.6C26.4 15.9182 26.5264 16.2235 26.7515 16.4485C26.9765 16.6736 27.2817 16.8 27.6 16.8H37.8L26.4 5.39999ZM24 34.8C24 37.6643 22.8621 40.4113 20.8367 42.4367C18.8114 44.4621 16.0643 45.6 13.2 45.6C10.3357 45.6 7.58863 44.4621 5.56324 42.4367C3.53785 40.4113 2.39999 37.6643 2.39999 34.8C2.39999 31.9356 3.53785 29.1886 5.56324 27.1632C7.58863 25.1378 10.3357 24 13.2 24C16.0643 24 18.8114 25.1378 20.8367 27.1632C22.8621 29.1886 24 31.9356 24 34.8ZM18.8496 30.3504C18.7381 30.2386 18.6057 30.15 18.4599 30.0895C18.3141 30.029 18.1578 29.9978 18 29.9978C17.8422 29.9978 17.6859 30.029 17.5401 30.0895C17.3943 30.15 17.2619 30.2386 17.1504 30.3504L10.8 36.7032L9.24959 35.1504C9.02427 34.9251 8.71866 34.7985 8.39999 34.7985C8.08133 34.7985 7.77572 34.9251 7.55039 35.1504C7.32507 35.3757 7.19848 35.6813 7.19848 36C7.19848 36.3186 7.32507 36.6243 7.55039 36.8496L9.95039 39.2496C10.0619 39.3613 10.1943 39.45 10.3401 39.5105C10.4859 39.571 10.6422 39.6021 10.8 39.6021C10.9578 39.6021 11.1141 39.571 11.2599 39.5105C11.4057 39.45 11.5381 39.3613 11.6496 39.2496L18.8496 32.0496C18.9613 31.9381 19.05 31.8057 19.1105 31.6599C19.171 31.5141 19.2021 31.3578 19.2021 31.2C19.2021 31.0421 19.171 30.8859 19.1105 30.7401C19.05 30.5943 18.9613 30.4619 18.8496 30.3504Z" fill="#F89530"/>
<path d="M24 4.79999V15.6C24 16.5548 24.3793 17.4704 25.0544 18.1456C25.7295 18.8207 26.6452 19.2 27.6 19.2H38.4V39.6C38.4 40.5548 38.0207 41.4704 37.3456 42.1456C36.6704 42.8207 35.7548 43.2 34.8 43.2H23.3832C25.1757 41.0293 26.2273 38.3425 26.3844 35.5318C26.5415 32.7211 25.796 29.9337 24.2566 27.5768C22.7172 25.2199 20.4646 23.4168 17.8278 22.4309C15.191 21.4451 12.3081 21.328 9.59999 22.0968V8.39999C9.59999 7.44521 9.97928 6.52953 10.6544 5.8544C11.3295 5.17927 12.2452 4.79999 13.2 4.79999H24ZM26.4 5.39999V15.6C26.4 15.9182 26.5264 16.2235 26.7515 16.4485C26.9765 16.6736 27.2817 16.8 27.6 16.8H37.8L26.4 5.39999ZM24 34.8C24 37.6643 22.8621 40.4113 20.8367 42.4367C18.8114 44.4621 16.0643 45.6 13.2 45.6C10.3357 45.6 7.58863 44.4621 5.56324 42.4367C3.53785 40.4113 2.39999 37.6643 2.39999 34.8C2.39999 31.9356 3.53785 29.1886 5.56324 27.1632C7.58863 25.1378 10.3357 24 13.2 24C16.0643 24 18.8114 25.1378 20.8367 27.1632C22.8621 29.1886 24 31.9356 24 34.8ZM18.8496 30.3504C18.7381 30.2386 18.6057 30.15 18.4599 30.0895C18.3141 30.029 18.1578 29.9978 18 29.9978C17.8422 29.9978 17.6859 30.029 17.5401 30.0895C17.3943 30.15 17.2619 30.2386 17.1504 30.3504L10.8 36.7032L9.24959 35.1504C9.02427 34.9251 8.71866 34.7985 8.39999 34.7985C8.08133 34.7985 7.77572 34.9251 7.55039 35.1504C7.32507 35.3757 7.19848 35.6813 7.19848 36C7.19848 36.3186 7.32507 36.6243 7.55039 36.8496L9.95039 39.2496C10.0619 39.3613 10.1943 39.45 10.3401 39.5105C10.4859 39.571 10.6422 39.6021 10.8 39.6021C10.9578 39.6021 11.1141 39.571 11.2599 39.5105C11.4057 39.45 11.5381 39.3613 11.6496 39.2496L18.8496 32.0496C18.9613 31.9381 19.05 31.8057 19.1105 31.6599C19.171 31.5141 19.2021 31.3578 19.2021 31.2C19.2021 31.0421 19.171 30.8859 19.1105 30.7401C19.05 30.5943 18.9613 30.4619 18.8496 30.3504Z" fill="url(#paint0_linear_1_636)" fill-opacity="0.2" style="mix-blend-mode:overlay"/>
<defs>
<linearGradient id="paint0_linear_1_636" x1="34.8" y1="35.91" x2="8.63148" y2="10.1037" gradientUnits="userSpaceOnUse">
<stop/>
<stop offset="1" stop-color="white" stop-opacity="0"/>
</linearGradient>
</defs>
</svg>
