<svg width="262" height="8" viewBox="0 0 262 8" fill="none" xmlns="http://www.w3.org/2000/svg">
<path d="M0.333333 4C0.333333 5.47276 1.52724 6.66667 3 6.66667C4.47276 6.66667 5.66667 5.47276 5.66667 4C5.66667 2.52724 4.47276 1.33333 3 1.33333C1.52724 1.33333 0.333333 2.52724 0.333333 4ZM261.354 4.35355C261.549 4.15829 261.549 3.84171 261.354 3.64645L258.172 0.464466C257.976 0.269204 257.66 0.269204 257.464 0.464466C257.269 0.659728 257.269 0.976311 257.464 1.17157L260.293 4L257.464 6.82843C257.269 7.02369 257.269 7.34027 257.464 7.53553C257.66 7.7308 257.976 7.7308 258.172 7.53553L261.354 4.35355ZM3 4.5H261V3.5L3 3.5V4.5Z" fill="#F89530"/>
</svg>
