<svg width="48" height="48" viewBox="0 0 48 48" fill="none" xmlns="http://www.w3.org/2000/svg">
<path d="M32.16 13.26C32.02 13.06 31.86 12.88 31.7 12.72H31.68C31.0569 12.0943 30.2969 11.6218 29.46 11.34L26.7 10.44C26.5 10.36 26.3 10.22 26.18 10.04C26.046 9.86147 25.9756 9.64321 25.98 9.42001C25.9756 9.19682 26.046 8.97856 26.18 8.80001C26.3 8.62001 26.48 8.48001 26.7 8.40001L29.46 7.50001C30.3 7.22001 31.04 6.74001 31.66 6.12001C32.24 5.52001 32.7 4.78001 33 3.98001V3.92001L33.9 1.16001C33.98 0.960014 34.12 0.760014 34.3 0.640014C34.4785 0.506012 34.6968 0.435607 34.92 0.440014C35.14 0.440014 35.36 0.520014 35.54 0.640014C35.72 0.760014 35.86 0.940014 35.94 1.16001L36.84 3.92001C37.12 4.76001 37.6 5.52001 38.22 6.14001C38.84 6.78001 39.6 7.24001 40.44 7.52001L43.2 8.42001H43.26C43.46 8.50001 43.64 8.64001 43.78 8.82001C43.92 9.00001 43.98 9.22001 43.98 9.44001C43.9844 9.66321 43.914 9.88147 43.78 10.06C43.66 10.24 43.48 10.38 43.26 10.46L40.5 11.36C39.66 11.64 38.9 12.12 38.28 12.74C37.64 13.36 37.18 14.12 36.9 14.96L35.98 17.72V17.78C35.9 17.96 35.76 18.12 35.6 18.24C35.4214 18.374 35.2032 18.4444 34.98 18.44C34.7568 18.4444 34.5385 18.374 34.36 18.24C34.1745 18.114 34.0342 17.9317 33.96 17.72L33.06 14.96C32.86 14.34 32.56 13.76 32.16 13.26ZM47.56 20.86L46.02 20.38C45.54 20.22 45.12 19.96 44.78 19.62C44.44 19.26 44.18 18.84 44.02 18.38L43.52 16.86C43.4773 16.7408 43.4008 16.6366 43.3 16.56C43.2035 16.4828 43.0836 16.4407 42.96 16.4407C42.8364 16.4407 42.7165 16.4828 42.62 16.56C42.52 16.64 42.44 16.74 42.4 16.86L41.9 18.38C41.76 18.84 41.5 19.26 41.16 19.6C40.82 19.94 40.4 20.2 39.94 20.36L38.4 20.86C38.28 20.9 38.18 20.98 38.1 21.08C38.0227 21.1765 37.9807 21.2964 37.9807 21.42C37.9807 21.5436 38.0227 21.6635 38.1 21.76C38.18 21.86 38.28 21.94 38.4 21.98L39.94 22.48C40.4 22.62 40.84 22.9 41.18 23.24C41.52 23.58 41.78 24.02 41.94 24.48L42.44 26C42.48 26.12 42.56 26.22 42.66 26.3C42.7565 26.3773 42.8764 26.4194 43 26.4194C43.1236 26.4194 43.2435 26.3773 43.34 26.3C43.44 26.22 43.52 26.12 43.56 26L44.06 24.48C44.22 24 44.48 23.58 44.82 23.24C45.18 22.9 45.6 22.64 46.06 22.48L47.6 21.98C47.72 21.94 47.82 21.86 47.9 21.76C47.98 21.66 48 21.54 48 21.42C48 21.3 47.98 21.18 47.9 21.08C47.82 20.98 47.688 20.92 47.56 20.86ZM39.08 25.42L39.6 27.02C39.7 27.3 39.84 27.52 40 27.76V39.92C40 42.4 37.98 44.42 35.5 44.42H12.5C10.02 44.42 8 42.4 8 39.92V8.92001C8 6.44001 10.02 4.42001 12.5 4.42001H29.02C28.88 4.50001 28.72 4.58001 28.58 4.64001L25.74 5.56001C24.94 5.86001 24.24 6.36001 23.76 7.06001C23.2631 7.74633 22.997 8.57271 23 9.42001C23 10.28 23.26 11.1 23.74 11.78C23.896 12.004 24.096 12.184 24.29 12.358L24.38 12.44H15.5C14.68 12.44 14 13.12 14 13.94C14 14.76 14.68 15.44 15.5 15.44H29.98L30.05 15.556C30.1168 15.6584 30.1738 15.7668 30.22 15.88L31.14 18.7C31.42 19.5 31.94 20.18 32.64 20.68C33.34 21.16 34.16 21.42 35 21.42C35 22.16 35.22 22.88 35.66 23.5C36.1 24.12 36.7 24.56 37.48 24.84L39.08 25.42ZM15.5 35.42H32.5C33.32 35.42 34 34.74 34 33.92C34 33.1 33.32 32.42 32.5 32.42H15.5C14.68 32.42 14 33.1 14 33.92C14 34.74 14.68 35.42 15.5 35.42ZM15.5 25.42H32.5C33.32 25.42 34 24.74 34 23.92C34 23.1 33.32 22.42 32.5 22.42H15.5C14.68 22.42 14 23.1 14 23.92C14 24.74 14.68 25.42 15.5 25.42Z" fill="#F89530"/>
<path d="M32.16 13.26C32.02 13.06 31.86 12.88 31.7 12.72H31.68C31.0569 12.0943 30.2969 11.6218 29.46 11.34L26.7 10.44C26.5 10.36 26.3 10.22 26.18 10.04C26.046 9.86147 25.9756 9.64321 25.98 9.42001C25.9756 9.19682 26.046 8.97856 26.18 8.80001C26.3 8.62001 26.48 8.48001 26.7 8.40001L29.46 7.50001C30.3 7.22001 31.04 6.74001 31.66 6.12001C32.24 5.52001 32.7 4.78001 33 3.98001V3.92001L33.9 1.16001C33.98 0.960014 34.12 0.760014 34.3 0.640014C34.4785 0.506012 34.6968 0.435607 34.92 0.440014C35.14 0.440014 35.36 0.520014 35.54 0.640014C35.72 0.760014 35.86 0.940014 35.94 1.16001L36.84 3.92001C37.12 4.76001 37.6 5.52001 38.22 6.14001C38.84 6.78001 39.6 7.24001 40.44 7.52001L43.2 8.42001H43.26C43.46 8.50001 43.64 8.64001 43.78 8.82001C43.92 9.00001 43.98 9.22001 43.98 9.44001C43.9844 9.66321 43.914 9.88147 43.78 10.06C43.66 10.24 43.48 10.38 43.26 10.46L40.5 11.36C39.66 11.64 38.9 12.12 38.28 12.74C37.64 13.36 37.18 14.12 36.9 14.96L35.98 17.72V17.78C35.9 17.96 35.76 18.12 35.6 18.24C35.4214 18.374 35.2032 18.4444 34.98 18.44C34.7568 18.4444 34.5385 18.374 34.36 18.24C34.1745 18.114 34.0342 17.9317 33.96 17.72L33.06 14.96C32.86 14.34 32.56 13.76 32.16 13.26ZM47.56 20.86L46.02 20.38C45.54 20.22 45.12 19.96 44.78 19.62C44.44 19.26 44.18 18.84 44.02 18.38L43.52 16.86C43.4773 16.7408 43.4008 16.6366 43.3 16.56C43.2035 16.4828 43.0836 16.4407 42.96 16.4407C42.8364 16.4407 42.7165 16.4828 42.62 16.56C42.52 16.64 42.44 16.74 42.4 16.86L41.9 18.38C41.76 18.84 41.5 19.26 41.16 19.6C40.82 19.94 40.4 20.2 39.94 20.36L38.4 20.86C38.28 20.9 38.18 20.98 38.1 21.08C38.0227 21.1765 37.9807 21.2964 37.9807 21.42C37.9807 21.5436 38.0227 21.6635 38.1 21.76C38.18 21.86 38.28 21.94 38.4 21.98L39.94 22.48C40.4 22.62 40.84 22.9 41.18 23.24C41.52 23.58 41.78 24.02 41.94 24.48L42.44 26C42.48 26.12 42.56 26.22 42.66 26.3C42.7565 26.3773 42.8764 26.4194 43 26.4194C43.1236 26.4194 43.2435 26.3773 43.34 26.3C43.44 26.22 43.52 26.12 43.56 26L44.06 24.48C44.22 24 44.48 23.58 44.82 23.24C45.18 22.9 45.6 22.64 46.06 22.48L47.6 21.98C47.72 21.94 47.82 21.86 47.9 21.76C47.98 21.66 48 21.54 48 21.42C48 21.3 47.98 21.18 47.9 21.08C47.82 20.98 47.688 20.92 47.56 20.86ZM39.08 25.42L39.6 27.02C39.7 27.3 39.84 27.52 40 27.76V39.92C40 42.4 37.98 44.42 35.5 44.42H12.5C10.02 44.42 8 42.4 8 39.92V8.92001C8 6.44001 10.02 4.42001 12.5 4.42001H29.02C28.88 4.50001 28.72 4.58001 28.58 4.64001L25.74 5.56001C24.94 5.86001 24.24 6.36001 23.76 7.06001C23.2631 7.74633 22.997 8.57271 23 9.42001C23 10.28 23.26 11.1 23.74 11.78C23.896 12.004 24.096 12.184 24.29 12.358L24.38 12.44H15.5C14.68 12.44 14 13.12 14 13.94C14 14.76 14.68 15.44 15.5 15.44H29.98L30.05 15.556C30.1168 15.6584 30.1738 15.7668 30.22 15.88L31.14 18.7C31.42 19.5 31.94 20.18 32.64 20.68C33.34 21.16 34.16 21.42 35 21.42C35 22.16 35.22 22.88 35.66 23.5C36.1 24.12 36.7 24.56 37.48 24.84L39.08 25.42ZM15.5 35.42H32.5C33.32 35.42 34 34.74 34 33.92C34 33.1 33.32 32.42 32.5 32.42H15.5C14.68 32.42 14 33.1 14 33.92C14 34.74 14.68 35.42 15.5 35.42ZM15.5 25.42H32.5C33.32 25.42 34 24.74 34 23.92C34 23.1 33.32 22.42 32.5 22.42H15.5C14.68 22.42 14 23.1 14 23.92C14 24.74 14.68 25.42 15.5 25.42Z" fill="url(#paint0_linear_1_644)" fill-opacity="0.2" style="mix-blend-mode:overlay"/>
<defs>
<linearGradient id="paint0_linear_1_644" x1="44" y1="33.9747" x2="15.7928" y2="5.30209" gradientUnits="userSpaceOnUse">
<stop/>
<stop offset="1" stop-color="white" stop-opacity="0"/>
</linearGradient>
</defs>
</svg>
