<svg width="48" height="48" viewBox="0 0 48 48" fill="none" xmlns="http://www.w3.org/2000/svg">
<path d="M24 3V13.5C24 14.6924 24.4733 15.8361 25.3159 16.6799C26.1585 17.5236 27.3016 17.9984 28.494 18H38.994V21.105C37.4361 21.3748 36.0001 22.1211 34.884 23.241L22.023 36.102C20.5701 37.5542 19.5394 39.3741 19.041 41.367L18.135 44.994H13.5C12.3065 44.994 11.1619 44.5199 10.318 43.676C9.47411 42.8321 9 41.6875 9 40.494V7.5C9 6.30653 9.47411 5.16193 10.318 4.31802C11.1619 3.47411 12.3065 3 13.5 3H24ZM38.994 24.18C38.2436 24.4018 37.5608 24.8082 37.008 25.362L24.15 38.22C23.0829 39.2878 22.3259 40.6254 21.96 42.09L21.051 45.723C20.9746 46.0291 20.9786 46.3498 21.0626 46.6539C21.1467 46.958 21.3079 47.2352 21.5307 47.4586C21.7535 47.682 22.0303 47.844 22.3342 47.9288C22.638 48.0137 22.9587 48.0186 23.265 47.943L26.898 47.034C28.3626 46.6683 29.7003 45.9113 30.768 44.844L43.632 31.98C44.369 31.2446 44.8397 30.2844 44.9696 29.2514C45.0996 28.2184 44.8813 27.1716 44.3495 26.2765C43.8176 25.3815 43.0025 24.6893 42.0331 24.3096C41.0636 23.9299 39.9923 23.8843 38.994 24.18ZM26.994 3.75V13.5C26.994 13.8978 27.152 14.2794 27.4333 14.5607C27.7146 14.842 28.0962 15 28.494 15H38.244L26.994 3.75Z" fill="#F89530"/>
<path d="M24 3V13.5C24 14.6924 24.4733 15.8361 25.3159 16.6799C26.1585 17.5236 27.3016 17.9984 28.494 18H38.994V21.105C37.4361 21.3748 36.0001 22.1211 34.884 23.241L22.023 36.102C20.5701 37.5542 19.5394 39.3741 19.041 41.367L18.135 44.994H13.5C12.3065 44.994 11.1619 44.5199 10.318 43.676C9.47411 42.8321 9 41.6875 9 40.494V7.5C9 6.30653 9.47411 5.16193 10.318 4.31802C11.1619 3.47411 12.3065 3 13.5 3H24ZM38.994 24.18C38.2436 24.4018 37.5608 24.8082 37.008 25.362L24.15 38.22C23.0829 39.2878 22.3259 40.6254 21.96 42.09L21.051 45.723C20.9746 46.0291 20.9786 46.3498 21.0626 46.6539C21.1467 46.958 21.3079 47.2352 21.5307 47.4586C21.7535 47.682 22.0303 47.844 22.3342 47.9288C22.638 48.0137 22.9587 48.0186 23.265 47.943L26.898 47.034C28.3626 46.6683 29.7003 45.9113 30.768 44.844L43.632 31.98C44.369 31.2446 44.8397 30.2844 44.9696 29.2514C45.0996 28.2184 44.8813 27.1716 44.3495 26.2765C43.8176 25.3815 43.0025 24.6893 42.0331 24.3096C41.0636 23.9299 39.9923 23.8843 38.994 24.18ZM26.994 3.75V13.5C26.994 13.8978 27.152 14.2794 27.4333 14.5607C27.7146 14.842 28.0962 15 28.494 15H38.244L26.994 3.75Z" fill="url(#paint0_linear_1_660)" fill-opacity="0.2"/>
<defs>
<linearGradient id="paint0_linear_1_660" x1="41.4056" y1="37.3097" x2="12.7218" y2="11.6565" gradientUnits="userSpaceOnUse">
<stop/>
<stop offset="1" stop-color="white" stop-opacity="0"/>
</linearGradient>
</defs>
</svg>
